<svg width="214" height="189" viewBox="0 0 214 189" fill="none" xmlns="http://www.w3.org/2000/svg">
<g id="Vector" filter="url(#filter0_d_61_67)">
<path d="M18.9 0C13.8874 0 9.08012 2.14664 5.53568 5.9677C1.99124 9.78875 0 14.9712 0 20.375V61.125C5.01259 61.125 9.81988 63.2716 13.3643 67.0927C16.9088 70.9138 18.9 76.0962 18.9 81.5C18.9 86.9038 16.9088 92.0862 13.3643 95.9073C9.81988 99.7283 5.01259 101.875 0 101.875V142.625C0 148.029 1.99124 153.211 5.53568 157.032C9.08012 160.853 13.8874 163 18.9 163H170.1C175.113 163 179.92 160.853 183.464 157.032C187.009 153.211 189 148.029 189 142.625V101.875C183.987 101.875 179.18 99.7283 175.636 95.9073C172.091 92.0862 170.1 86.9038 170.1 81.5C170.1 76.0962 172.091 70.9138 175.636 67.0927C179.18 63.2716 183.987 61.125 189 61.125V20.375C189 14.9712 187.009 9.78875 183.464 5.9677C179.92 2.14664 175.113 0 170.1 0H18.9ZM127.575 30.5625L141.75 45.8438L61.425 132.438L47.25 117.156L127.575 30.5625ZM64.3545 30.97C73.6155 30.97 81.081 39.0181 81.081 49.0019C81.081 53.7842 79.3187 58.3707 76.1819 61.7523C73.0451 65.134 68.7906 67.0338 64.3545 67.0338C55.0935 67.0338 47.628 58.9856 47.628 49.0019C47.628 44.2195 49.3903 39.633 52.5271 36.2514C55.6639 32.8698 59.9184 30.97 64.3545 30.97ZM124.645 95.9662C133.906 95.9662 141.372 104.014 141.372 113.998C141.372 118.78 139.61 123.367 136.473 126.749C133.336 130.13 129.082 132.03 124.645 132.03C115.384 132.03 107.919 123.982 107.919 113.998C107.919 109.216 109.681 104.629 112.818 101.248C115.955 97.866 120.209 95.9662 124.645 95.9662Z" fill="#160046"/>
</g>
<defs>
<filter id="filter0_d_61_67" x="0" y="0" width="213.2" height="188.2" filterUnits="userSpaceOnUse" color-interpolation-filters="sRGB">
<feFlood flood-opacity="0" result="BackgroundImageFix"/>
<feColorMatrix in="SourceAlpha" type="matrix" values="0 0 0 0 0 0 0 0 0 0 0 0 0 0 0 0 0 0 127 0" result="hardAlpha"/>
<feOffset dx="14" dy="15"/>
<feGaussianBlur stdDeviation="5.1"/>
<feComposite in2="hardAlpha" operator="out"/>
<feColorMatrix type="matrix" values="0 0 0 0 0 0 0 0 0 0 0 0 0 0 0 0 0 0 0.3 0"/>
<feBlend mode="normal" in2="BackgroundImageFix" result="effect1_dropShadow_61_67"/>
<feBlend mode="normal" in="SourceGraphic" in2="effect1_dropShadow_61_67" result="shape"/>
</filter>
</defs>
</svg>
