<svg width="205" height="208" viewBox="0 0 205 208" fill="none" xmlns="http://www.w3.org/2000/svg">
<g id="Vector" filter="url(#filter0_d_61_65)">
<path fill-rule="evenodd" clip-rule="evenodd" d="M72.2479 13.4738C73.6296 9.53164 76.1882 6.11899 79.5713 3.70593C82.9543 1.29287 86.9953 -0.00186738 91.1377 7.96559e-05H99.2863C103.823 -0.0128746 108.226 1.55458 111.751 4.43792C115.276 7.32125 117.707 11.3439 118.635 15.827C119.563 20.3101 118.931 24.9791 116.844 29.0461C114.758 33.1131 111.346 36.329 107.183 38.1511L89.7355 45.8561C88.9925 46.1814 88.3846 46.7573 88.0159 47.4852H110.742C112.935 47.4852 115.037 48.3645 116.588 49.9297C118.138 51.4948 119.009 53.6177 119.009 55.8311C119.009 58.0446 118.138 60.1674 116.588 61.7326C115.037 63.2978 112.935 64.1771 110.742 64.1771H79.3911C78.3043 64.1788 77.2278 63.9643 76.2232 63.5456C75.2186 63.127 74.3056 62.5125 73.5365 61.7373C72.7673 60.9622 72.1572 60.0415 71.7409 59.0281C71.3246 58.0146 71.1103 56.9283 71.1103 55.8311V49.0876C71.1103 41.0488 75.8195 33.7845 83.1082 30.5663L100.569 22.8613C101.256 22.5771 101.823 22.059 102.17 21.3969C102.518 20.7348 102.625 19.9707 102.473 19.2373C102.32 18.5039 101.918 17.8477 101.336 17.3827C100.753 16.9177 100.028 16.6733 99.2863 16.692H91.1377C90.4153 16.6917 89.7106 16.9176 89.1207 17.3385C88.5308 17.7594 88.0847 18.3547 87.8439 19.0422C87.4817 20.0759 86.9213 21.0276 86.1948 21.8427C85.4683 22.6578 84.5899 23.3206 83.6097 23.793C81.63 24.7471 79.356 24.8683 77.2878 24.1299C76.2638 23.7643 75.3211 23.1986 74.5136 22.4652C73.7061 21.7318 73.0496 20.845 72.5816 19.8555C71.6364 17.8571 71.5164 15.5615 72.2479 13.4738ZM152.993 3.79248C154.463 2.10182 156.408 0.903482 158.57 0.357076C160.732 -0.18933 163.008 -0.0578655 165.094 0.733958C167.179 1.52578 168.977 2.94038 170.247 4.78933C171.516 6.63828 172.197 8.83382 172.2 11.0835V35.6406C174.308 35.7612 176.291 36.6916 177.741 38.241C179.192 39.7904 180 41.8414 180 43.9732C180 46.105 179.192 48.156 177.741 49.7054C176.291 51.2548 174.308 52.1853 172.2 52.3058V55.8445C172.2 58.058 171.329 60.1808 169.778 61.746C168.228 63.3111 166.125 64.1904 163.932 64.1904C161.74 64.1904 159.637 63.3111 158.086 61.746C156.536 60.1808 155.665 58.058 155.665 55.8445V52.3192H135.426C133.286 52.3229 131.192 51.7033 129.393 50.5347C127.594 49.366 126.168 47.6981 125.285 45.7311C124.402 43.7642 124.1 41.5818 124.416 39.446C124.732 37.3103 125.652 35.3119 127.065 33.691L152.993 3.79248ZM147.371 35.6273L155.665 26.0528V35.6273H147.371ZM115.358 181.795C107.241 182.673 99.0715 180.717 92.2092 176.253C57.9644 152.968 28.4988 123.223 5.43243 88.6541C1.09964 81.6588 -0.725536 73.375 0.261489 65.1853C1.24851 56.9955 4.98803 49.3952 10.856 43.6527L15.8827 38.5784C18.1363 36.3277 21.1785 35.0653 24.3487 35.0653C27.5189 35.0653 30.5611 36.3277 32.8147 38.5784L53.1861 59.944C55.4075 62.1963 56.6547 65.2452 56.6547 68.4235C56.6547 71.6018 55.4075 74.6507 53.1861 76.903C50.9565 79.178 49.706 82.249 49.706 85.4492C49.706 88.6494 50.9565 91.7205 53.1861 93.9955L86.9179 128.047C89.1716 130.298 92.2138 131.56 95.3839 131.56C98.5541 131.56 101.596 130.298 103.85 128.047C106.081 125.804 109.101 124.546 112.25 124.546C115.398 124.546 118.419 125.804 120.65 128.047L141.815 149.279C144.044 151.554 145.295 154.625 145.295 157.825C145.295 161.026 144.044 164.097 141.815 166.372L136.788 171.446C131.024 177.263 123.462 180.915 115.358 181.795Z" fill="#160046"/>
</g>
<defs>
<filter id="filter0_d_61_65" x="0" y="0" width="204.2" height="207.2" filterUnits="userSpaceOnUse" color-interpolation-filters="sRGB">
<feFlood flood-opacity="0" result="BackgroundImageFix"/>
<feColorMatrix in="SourceAlpha" type="matrix" values="0 0 0 0 0 0 0 0 0 0 0 0 0 0 0 0 0 0 127 0" result="hardAlpha"/>
<feOffset dx="14" dy="15"/>
<feGaussianBlur stdDeviation="5.1"/>
<feComposite in2="hardAlpha" operator="out"/>
<feColorMatrix type="matrix" values="0 0 0 0 0 0 0 0 0 0 0 0 0 0 0 0 0 0 0.3 0"/>
<feBlend mode="normal" in2="BackgroundImageFix" result="effect1_dropShadow_61_65"/>
<feBlend mode="normal" in="SourceGraphic" in2="effect1_dropShadow_61_65" result="shape"/>
</filter>
</defs>
</svg>
