<svg width="24" height="22" viewBox="0 0 24 22" fill="none" xmlns="http://www.w3.org/2000/svg">
<path id="Vector" fill-rule="evenodd" clip-rule="evenodd" d="M10.6874 0.250732C9.04966 0.250862 7.43565 0.615642 5.98009 1.31464C4.52452 2.01363 3.2696 3.02658 2.32002 4.26896C1.37044 5.51133 0.753744 6.94712 0.521379 8.45653C0.289015 9.96594 0.447721 11.5052 0.984256 12.9459C1.52079 14.3866 2.4196 15.6869 3.60569 16.7384C4.79178 17.7899 6.23075 18.5621 7.80256 18.9905C9.37438 19.419 11.0334 19.4912 12.6413 19.2013C14.2492 18.9113 15.7594 18.2676 17.0457 17.3237L21.4585 21.4322C21.6864 21.6372 21.9917 21.7506 22.3085 21.748C22.6253 21.7454 22.9284 21.6271 23.1524 21.4185C23.3764 21.2099 23.5035 20.9278 23.5063 20.6328C23.509 20.3378 23.3872 20.0537 23.1671 19.8415L18.7543 15.733C19.9481 14.3229 20.6914 12.6284 20.8992 10.8434C21.107 9.05841 20.7707 7.25501 19.9291 5.63959C19.0874 4.02417 17.7742 2.66201 16.1398 1.70899C14.5054 0.755977 12.6159 0.250612 10.6874 0.250732ZM2.83327 9.81323C2.83327 7.87384 3.66076 6.01387 5.13371 4.64251C6.60665 3.27115 8.60439 2.50073 10.6874 2.50073C12.7705 2.50073 14.7682 3.27115 16.2412 4.64251C17.7141 6.01387 18.5416 7.87384 18.5416 9.81323C18.5416 11.7526 17.7141 13.6126 16.2412 14.984C14.7682 16.3553 12.7705 17.1257 10.6874 17.1257C8.60439 17.1257 6.60665 16.3553 5.13371 14.984C3.66076 13.6126 2.83327 11.7526 2.83327 9.81323Z" fill="black" fill-opacity="0.28"/>
</svg>
