<svg width="227" height="187" viewBox="0 0 227 187" fill="none" xmlns="http://www.w3.org/2000/svg">
<g id="Vector" filter="url(#filter0_d_61_59)">
<path d="M196.95 110.688H191.9V76.6951C191.9 72.7016 190.29 68.8652 187.45 66.0352L155.919 34.6213C153.078 31.7912 149.228 30.1875 145.219 30.1875H131.3V15.0938C131.3 6.76074 124.514 0 116.15 0H35.35C26.9859 0 20.2 6.76074 20.2 15.0938V30.1875H2.525C1.13625 30.1875 0 31.3195 0 32.7031V37.7344C0 39.118 1.13625 40.25 2.525 40.25H88.375C89.7638 40.25 90.9 41.382 90.9 42.7656V47.7969C90.9 49.1805 89.7638 50.3125 88.375 50.3125H12.625C11.2362 50.3125 10.1 51.4445 10.1 52.8281V57.8594C10.1 59.243 11.2362 60.375 12.625 60.375H78.275C79.6637 60.375 80.8 61.507 80.8 62.8906V67.9219C80.8 69.3055 79.6637 70.4375 78.275 70.4375H2.525C1.13625 70.4375 0 71.5695 0 72.9531V77.9844C0 79.368 1.13625 80.5 2.525 80.5H68.175C69.5638 80.5 70.7 81.632 70.7 83.0156V88.0469C70.7 89.4305 69.5638 90.5625 68.175 90.5625H20.2V130.812C20.2 147.479 33.7719 161 50.5 161C67.2281 161 80.8 147.479 80.8 130.812H121.2C121.2 147.479 134.772 161 151.5 161C168.228 161 181.8 147.479 181.8 130.812H196.95C199.728 130.812 202 128.548 202 125.781V115.719C202 112.952 199.728 110.688 196.95 110.688ZM50.5 145.906C42.1359 145.906 35.35 139.146 35.35 130.812C35.35 122.479 42.1359 115.719 50.5 115.719C58.8641 115.719 65.65 122.479 65.65 130.812C65.65 139.146 58.8641 145.906 50.5 145.906ZM151.5 145.906C143.136 145.906 136.35 139.146 136.35 130.812C136.35 122.479 143.136 115.719 151.5 115.719C159.864 115.719 166.65 122.479 166.65 130.812C166.65 139.146 159.864 145.906 151.5 145.906ZM176.75 80.5H131.3V45.2812H145.219L176.75 76.6951V80.5Z" fill="#160046"/>
</g>
<defs>
<filter id="filter0_d_61_59" x="0" y="0" width="226.2" height="186.2" filterUnits="userSpaceOnUse" color-interpolation-filters="sRGB">
<feFlood flood-opacity="0" result="BackgroundImageFix"/>
<feColorMatrix in="SourceAlpha" type="matrix" values="0 0 0 0 0 0 0 0 0 0 0 0 0 0 0 0 0 0 127 0" result="hardAlpha"/>
<feOffset dx="14" dy="15"/>
<feGaussianBlur stdDeviation="5.1"/>
<feComposite in2="hardAlpha" operator="out"/>
<feColorMatrix type="matrix" values="0 0 0 0 0 0 0 0 0 0 0 0 0 0 0 0 0 0 0.3 0"/>
<feBlend mode="normal" in2="BackgroundImageFix" result="effect1_dropShadow_61_59"/>
<feBlend mode="normal" in="SourceGraphic" in2="effect1_dropShadow_61_59" result="shape"/>
</filter>
</defs>
</svg>
