<svg width="54" height="49" viewBox="0 0 54 49" fill="none" xmlns="http://www.w3.org/2000/svg">
<path id="Vector" d="M16.215 49C14.7286 49 13.4566 48.5206 12.3991 47.5618C11.3415 46.6031 10.8118 45.4491 10.81 44.1C10.81 42.7525 11.3397 41.5994 12.3991 40.6406C13.4584 39.6818 14.7304 39.2016 16.215 39.2C17.7014 39.2 18.9742 39.6802 20.0336 40.6406C21.093 41.601 21.6218 42.7541 21.62 44.1C21.62 45.4475 21.0912 46.6014 20.0336 47.5618C18.976 48.5222 17.7032 49.0016 16.215 49ZM43.24 49C41.7536 49 40.4816 48.5206 39.424 47.5618C38.3665 46.6031 37.8368 45.4491 37.835 44.1C37.835 42.7525 38.3646 41.5994 39.424 40.6406C40.4834 39.6818 41.7554 39.2016 43.24 39.2C44.7263 39.2 45.9992 39.6802 47.0586 40.6406C48.118 41.601 48.6467 42.7541 48.6449 44.1C48.6449 45.4475 48.1162 46.6014 47.0586 47.5618C46.001 48.5222 44.7281 49.0016 43.24 49ZM11.3505 4.9H51.2123C52.2483 4.9 53.0365 5.31895 53.577 6.15685C54.1175 6.99475 54.14 7.84163 53.6446 8.6975L44.0507 24.3775C43.5552 25.1942 42.8913 25.8271 42.059 26.2762C41.2266 26.7254 40.314 26.95 39.3213 26.95H19.1877L16.215 31.85H48.6449V36.75H16.215C14.1881 36.75 12.6567 35.9439 11.6207 34.3318C10.5848 32.7197 10.5397 31.1166 11.4856 29.5225L15.134 23.52L5.40499 4.9H0V0H8.78312L11.3505 4.9Z" fill="#F6A200"/>
</svg>
